<?xml version="1.0" encoding="utf-8"?>
<!-- Generator: Adobe Illustrator 16.0.0, SVG Export Plug-In . SVG Version: 6.00 Build 0)  -->
<!DOCTYPE svg PUBLIC "-//W3C//DTD SVG 1.1//EN" "http://www.w3.org/Graphics/SVG/1.1/DTD/svg11.dtd">
<svg version="1.1" id="Layer_1" xmlns="http://www.w3.org/2000/svg" xmlns:xlink="http://www.w3.org/1999/xlink" x="0px" y="0px"
	 width="872.512px" height="873px" viewBox="0 0 872.512 873" enable-background="new 0 0 872.512 873" xml:space="preserve">
<g>
	<path fill="#222222" d="M457.834,873c-14.333,0-28.667,0-43,0c-1.581-0.32-3.149-0.742-4.745-0.946
		c-19.633-2.507-39.518-3.758-58.864-7.671c-95.317-19.281-176.469-64.623-240.258-138.002
		C12.042,612.582-21.248,480.551,13.135,333.972C57.973,142.822,226.501,7.179,422.031,0.931c4.273-0.136,8.536-0.613,12.804-0.931
		c1.333,0,2.667,0,4,0c1.42,0.264,2.84,0.756,4.261,0.758c27.416,0.032,54.55,3.072,81.315,8.722
		c96.427,20.353,177.792,67.278,241.849,142.063c82.338,96.129,116.437,208.057,103.636,334.041
		c-5.098,50.169-19.139,97.909-41.584,143.028c-44.473,89.397-111.66,156.25-201.159,200.452
		c-47.646,23.531-98.124,37.357-151.09,42.014C469.977,871.613,463.91,872.354,457.834,873z M194.818,429.688
		c9.239-9.392,12.921-15.992,13.141-24.756c0.235-9.326,0.323-18.672-0.011-27.993c-0.599-16.669-10.586-28.873-27.104-30.832
		c-13.152-1.56-26.587-1.131-39.884-0.886c-6.07,0.112-10.295,5.66-10.303,12.142c-0.062,50.163-0.074,100.326,0.014,150.489
		c0.013,7.187,5.191,12.075,12.497,12.154c10.998,0.118,22.003,0.243,32.997-0.02c21.355-0.511,36.639-16.259,36.708-37.521
		c0.022-7.167-0.014-14.333,0.007-21.499C212.919,447.227,207.987,436.311,194.818,429.688z M441.876,417.839
		c0-2.128-0.001-3.927-0.001-5.726c0-18.167,0.008-36.333-0.002-54.5c-0.006-9.393-4.69-14.602-13.141-14.653
		c-8.592-0.053-13.468,5.053-13.473,14.352c-0.028,50.167-0.029,100.333,0.001,150.499c0.006,9.229,4.972,14.324,13.601,14.229
		c8.226-0.091,13.001-5.308,13.009-14.288c0.016-19.666,0.004-39.332,0.005-58.999c0-1.772,0-3.544,0-5.399
		c10.037,0,19.449,0,29.368,0c0,2.271,0,4.238,0,6.207c0.001,19.5-0.039,39,0.021,58.5c0.027,8.912,4.951,13.968,13.346,13.98
		c8.452,0.012,13.243-4.996,13.257-13.962c0.025-16.667,0.008-33.333,0.008-49.999c-0.001-33.833,0.01-67.667-0.01-101.5
		c-0.004-6.951-3.301-11.653-9.133-13.247c-9.347-2.554-17.376,3.259-17.445,12.941c-0.132,18.499-0.042,37-0.044,55.5
		c0,1.936,0,3.872,0,6.065C461.251,417.839,451.967,417.839,441.876,417.839z M345.633,481.103c1.355,0.231,2.487,0.447,3.625,0.618
		c22.927,3.445,40.319-8.418,43.225-30.1c0.966-7.208,0.238-14.636,0.413-21.96c0.174-7.259-0.369-14.286-5.828-20.307
		c2.147-0.279,3.767-0.408,5.354-0.71c8.161-1.552,11.414-6.109,10.201-14.211c-1.031-6.885-4.625-9.233-13.093-8.536
		c-0.994,0.082-1.98,0.263-2.973,0.37c-11.562,1.237-23.1,2.891-34.695,3.6c-16.032,0.979-28.291,10.856-30.993,26.727
		c-1.107,6.502-0.735,13.252-1.081,19.888c-0.701,13.464,0.48,26.388,10.954,36.65c-6.675,4.827-10.845,10.57-11.451,18.464
		c-0.617,8.03,2.041,14.636,9.225,19.312c-1.529,1.055-2.336,1.611-3.144,2.168c-9.335,6.426-12.901,15.443-11.364,26.434
		c1.498,10.717,8.175,17.369,18.167,20.431c15.042,4.61,30.388,5.212,44.978-1.082c6.306-2.721,12.673-7.226,16.857-12.598
		c16.06-20.622,4.412-49.954-20.704-52.985c-6.902-0.834-13.976-0.185-20.969-0.338C344.301,492.76,342.021,488.947,345.633,481.103
		z M713.793,399.37c-2.522-2.102-4.161-3.811-6.107-5.031c-9.025-5.659-18.584-6.138-28.089-1.667
		c-8.817,4.148-12.196,12.138-12.265,21.312c-0.21,27.98-0.314,55.967,0.02,83.945c0.186,15.563,11.329,25.543,26.904,25.1
		c8.436-0.239,14.684-4.562,19.917-11.511c1.743,5.534,4.543,9.457,10.091,10.397c9.117,1.547,15.108-3.555,15.132-13.104
		c0.071-28.648,0.028-57.298,0.028-85.946c0-22.153-0.029-44.306,0.019-66.458c0.011-4.986-1.257-9.26-5.833-11.888
		c-9.238-5.307-19.75,0.643-19.8,11.244C713.743,370.055,713.793,384.348,713.793,399.37z M276.299,511.395
		c0.468,1.424,0.641,2.065,0.886,2.678c2.59,6.456,7.616,9.109,14.833,7.844c5.653-0.992,8.766-5.223,8.854-12.058
		c0.021-1.666,0.004-3.332,0.004-4.998c0-33.651,0.022-67.304-0.016-100.955c-0.01-8.425-4.696-13.002-12.987-12.946
		c-8.079,0.055-12.59,4.73-12.606,13.398c-0.052,28.654-0.001,57.309-0.068,85.961c-0.005,1.908-0.023,4.42-1.143,5.607
		c-3.312,3.514-7.708,4.422-12.394,3.073c-4.11-1.184-5.669-4.329-5.91-8.313c-0.151-2.49-0.312-4.986-0.314-7.479
		c-0.023-26.155,0.013-52.31-0.031-78.465c-0.015-9.067-4.435-13.758-12.73-13.782c-8.421-0.024-12.871,4.617-12.876,13.566
		c-0.02,30.486-0.078,60.973,0.02,91.458c0.059,18.205,10.365,27.996,28.23,27.027C265.937,522.584,271.912,518.785,276.299,511.395
		z M544.982,464.041c11.693,0,22.828,0.032,33.963-0.012c7.147-0.027,10.695-3.531,10.759-10.762
		c0.087-9.995,0.228-19.996-0.025-29.985c-0.488-19.241-13.334-32.681-31.525-33.316c-22.963-0.802-37.227,9.71-38.256,30.644
		c-1.185,24.091-0.995,48.296-0.256,72.417c0.476,15.516,9.519,25.65,23.285,28.744c4.332,0.973,8.906,1.213,13.369,1.213
		c20.473-0.002,33.372-13.412,32.757-33.812c-0.228-7.524-4.406-11.646-11.92-11.755c-7.959-0.117-12.062,3.779-12.339,11.719
		c-0.034,0.998-0.014,2.002-0.112,2.994c-0.63,6.353-3.996,9.674-9.839,9.745c-5.716,0.07-9.553-3.353-9.777-9.708
		C544.741,483.04,544.982,473.892,544.982,464.041z M632.239,403.189c-1.012-5.4-2.676-9.654-8.059-10.984
		c-9.383-2.318-15.868,2.633-15.912,12.3c-0.075,16.311-0.023,32.623-0.023,48.934c0,18.309-0.027,36.617,0.016,54.926
		c0.018,7.389,3.049,11.85,8.851,13.363c9.356,2.439,16.736-3.146,16.75-12.822c0.041-28.795,0.012-57.59,0.019-86.384
		c0.001-5.607,1.575-6.973,7.196-6.294c2.632,0.318,5.265,0.953,7.893,0.929c6.569-0.06,10.64-4.793,10.903-12.302
		c0.302-8.57-3.104-13.223-10.154-13.871C640.531,390.14,636.938,392.547,632.239,403.189z M774.123,490.838
		c-9.101,0.064-15.177,6.297-15.125,15.514c0.051,9.12,6.324,15.471,15.296,15.485c9.169,0.015,15.477-6.507,15.377-15.901
		C789.575,496.829,783.338,490.773,774.123,490.838z"/>
	<path fill-rule="evenodd" clip-rule="evenodd" fill="#222222" d="M157.075,496.776c0-18.547,0-36.327,0-54.176
		c5.948,0,11.764-0.542,17.433,0.142c6.55,0.789,10.866,5.043,11.235,11.535c0.575,10.102,0.593,20.282,0.021,30.383
		c-0.371,6.541-4.834,10.339-11.354,11.42c-2.292,0.381-4.628,0.59-6.951,0.668C164.16,496.859,160.855,496.776,157.075,496.776z"/>
	<path fill-rule="evenodd" clip-rule="evenodd" fill="#222222" d="M157.112,418.957c0-17.289,0-33.698,0-50.988
		c5.513,0.383,10.791,0.44,15.964,1.208c4.108,0.61,7.402,3.502,7.586,7.597c0.481,10.742,0.677,21.539,0.099,32.267
		c-0.282,5.231-4.39,8.542-9.76,9.175C166.586,418.736,162.108,418.712,157.112,418.957z"/>
	<path fill-rule="evenodd" clip-rule="evenodd" fill="#222222" d="M344.884,436.083c-0.004-4.666-0.241-9.345,0.051-13.992
		c0.436-6.949,4.638-10.964,11.072-11.08c6.79-0.122,11.392,3.795,11.679,10.931c0.376,9.315,0.353,18.665,0.021,27.983
		c-0.254,7.112-4.861,11.184-11.547,11.112c-6.433-0.068-10.75-4.089-11.212-10.964C344.636,445.43,344.888,440.748,344.884,436.083
		z"/>
	<path fill-rule="evenodd" clip-rule="evenodd" fill="#222222" d="M356.05,542.738c-2.306-0.288-4.651-0.397-6.911-0.895
		c-9.742-2.143-13.31-11.877-8.05-21.759c2.072-3.892,4.595-6.649,9.729-5.957c4.416,0.596,8.964,0.151,13.414,0.577
		c5.35,0.513,9.44,2.961,10.936,8.596c1.507,5.68-0.126,12.008-5.137,14.978c-4.143,2.454-9.061,3.601-13.635,5.325
		C356.281,543.314,356.166,543.026,356.05,542.738z"/>
	<path fill-rule="evenodd" clip-rule="evenodd" fill="#222222" d="M713.792,456.496c0,11.652,0.005,23.307-0.002,34.959
		c-0.004,5.76-2.416,8.348-8.597,9.266c-5.691,0.846-9.937-1.43-11.433-6.381c-0.567-1.877-0.841-3.914-0.847-5.879
		c-0.058-21.475-0.1-42.951-0.008-64.426c0.041-9.743,6.927-14.393,15.67-10.812c3.486,1.428,5.469,3.441,5.337,7.817
		C713.559,432.849,713.792,444.676,713.792,456.496z"/>
	<path fill-rule="evenodd" clip-rule="evenodd" fill="#222222" d="M564.054,443.502c-6.465,0-12.543,0-18.869,0
		c0-8.172-0.386-16.099,0.135-23.967c0.351-5.313,4.479-8.25,9.596-8.149c5.049,0.1,8.651,2.746,9.005,8.088
		C564.44,427.334,564.054,435.254,564.054,443.502z"/>
</g>
<path fill-rule="evenodd" clip-rule="evenodd" fill="#EEEEEE" d="M194.818,429.688c13.168,6.623,18.101,17.539,18.062,31.279
	c-0.021,7.166,0.015,14.332-0.007,21.499c-0.068,21.263-15.352,37.011-36.708,37.521c-10.993,0.263-21.999,0.138-32.997,0.02
	c-7.306-0.079-12.484-4.968-12.497-12.154c-0.088-50.163-0.076-100.326-0.014-150.489c0.008-6.482,4.233-12.029,10.303-12.142
	c13.297-0.245,26.732-0.674,39.884,0.886c16.518,1.959,26.505,14.163,27.104,30.832c0.334,9.32,0.246,18.667,0.011,27.993
	C207.739,413.696,204.057,420.296,194.818,429.688z M157.075,496.776c3.78,0,7.085,0.083,10.384-0.028
	c2.323-0.078,4.659-0.287,6.951-0.668c6.521-1.081,10.983-4.879,11.354-11.42c0.572-10.101,0.554-20.281-0.021-30.383
	c-0.369-6.492-4.685-10.746-11.235-11.535c-5.669-0.684-11.485-0.142-17.433-0.142C157.075,460.449,157.075,478.229,157.075,496.776
	z M157.112,418.957c4.996-0.244,9.474-0.221,13.888-0.741c5.37-0.633,9.478-3.944,9.76-9.175
	c0.579-10.728,0.383-21.525-0.099-32.267c-0.184-4.095-3.478-6.987-7.586-7.597c-5.173-0.768-10.451-0.825-15.964-1.208
	C157.112,385.258,157.112,401.667,157.112,418.957z"/>
<path fill-rule="evenodd" clip-rule="evenodd" fill="#EEEEEE" d="M345.633,481.103c-3.613,7.845-1.332,11.657,6.703,11.833
	c6.993,0.153,14.067-0.496,20.969,0.338c25.116,3.031,36.764,32.363,20.704,52.985c-4.184,5.372-10.551,9.877-16.857,12.598
	c-14.59,6.294-29.936,5.692-44.978,1.082c-9.992-3.062-16.669-9.714-18.167-20.431c-1.537-10.99,2.029-20.008,11.364-26.434
	c0.808-0.557,1.615-1.113,3.144-2.168c-7.184-4.676-9.841-11.281-9.225-19.312c0.606-7.894,4.776-13.637,11.451-18.464
	c-10.474-10.262-11.655-23.186-10.954-36.65c0.346-6.635-0.026-13.386,1.081-19.888c2.703-15.871,14.961-25.747,30.993-26.727
	c11.596-0.708,23.133-2.363,34.695-3.6c0.993-0.106,1.979-0.288,2.973-0.37c8.469-0.698,12.062,1.65,13.093,8.536
	c1.212,8.102-2.041,12.659-10.201,14.211c-1.587,0.302-3.207,0.431-5.354,0.71c5.458,6.021,6.001,13.048,5.828,20.307
	c-0.175,7.325,0.553,14.752-0.413,21.96c-2.905,21.682-20.298,33.545-43.225,30.1C348.12,481.55,346.988,481.334,345.633,481.103z
	 M344.888,436.083c0,4.665-0.252,9.347,0.06,13.991c0.462,6.875,4.779,10.896,11.212,10.964c6.686,0.071,11.293-4,11.547-11.112
	c0.333-9.318,0.355-18.668-0.021-27.983c-0.287-7.136-4.889-11.053-11.679-10.931c-6.435,0.116-10.637,4.131-11.072,11.08
	C344.643,426.738,344.879,431.417,344.888,436.083z M356.05,542.738c0.115,0.288,0.23,0.576,0.346,0.865
	c4.574-1.725,9.492-2.871,13.635-5.325c5.011-2.97,6.645-9.298,5.137-14.978c-1.496-5.635-5.586-8.083-10.936-8.596
	c-4.45-0.426-8.998,0.019-13.414-0.577c-5.134-0.692-7.657,2.065-9.729,5.957c-5.26,9.882-1.691,19.616,8.05,21.759
	C351.399,542.341,353.745,542.45,356.05,542.738z"/>
<path fill-rule="evenodd" clip-rule="evenodd" fill="#EEEEEE" d="M713.793,399.37c0-15.022-0.051-29.315,0.017-43.607
	c0.05-10.601,10.562-16.55,19.8-11.244c4.576,2.628,5.844,6.901,5.833,11.888c-0.048,22.153-0.019,44.306-0.019,66.458
	c0,28.648,0.043,57.298-0.028,85.946c-0.023,9.55-6.015,14.651-15.132,13.104c-5.548-0.94-8.348-4.863-10.091-10.397
	c-5.233,6.949-11.481,11.271-19.917,11.511c-15.575,0.443-26.719-9.536-26.904-25.1c-0.334-27.979-0.229-55.965-0.02-83.945
	c0.068-9.174,3.447-17.164,12.265-21.312c9.505-4.472,19.063-3.993,28.089,1.667C709.632,395.559,711.271,397.268,713.793,399.37z
	 M713.792,456.496c0-11.82-0.233-23.647,0.121-35.456c0.132-4.376-1.851-6.39-5.337-7.817c-8.743-3.581-15.629,1.069-15.67,10.812
	c-0.092,21.475-0.05,42.951,0.008,64.426c0.006,1.965,0.279,4.002,0.847,5.879c1.496,4.951,5.741,7.227,11.433,6.381
	c6.181-0.918,8.593-3.506,8.597-9.266C713.797,479.803,713.792,468.148,713.792,456.496z"/>
<path fill-rule="evenodd" clip-rule="evenodd" fill="#EEEEEE" d="M544.982,464.041c0,9.851-0.241,18.999,0.083,28.127
	c0.225,6.355,4.062,9.778,9.777,9.708c5.843-0.071,9.209-3.393,9.839-9.745c0.099-0.992,0.078-1.996,0.112-2.994
	c0.277-7.939,4.38-11.836,12.339-11.719c7.514,0.109,11.692,4.23,11.92,11.755c0.615,20.399-12.284,33.81-32.757,33.812
	c-4.463,0-9.037-0.24-13.369-1.213c-13.767-3.094-22.81-13.229-23.285-28.744c-0.739-24.121-0.929-48.326,0.256-72.417
	c1.029-20.934,15.293-31.446,38.256-30.644c18.191,0.635,31.037,14.075,31.525,33.316c0.253,9.989,0.112,19.99,0.025,29.985
	c-0.063,7.23-3.611,10.734-10.759,10.762C567.81,464.073,556.675,464.041,544.982,464.041z M564.054,443.502
	c0-8.248,0.386-16.167-0.134-24.027c-0.354-5.342-3.956-7.988-9.005-8.088c-5.117-0.102-9.245,2.836-9.596,8.149
	c-0.521,7.868-0.135,15.795-0.135,23.967C551.511,443.502,557.589,443.502,564.054,443.502z"/>
<path fill-rule="evenodd" clip-rule="evenodd" fill="#EEEEEE" d="M441.876,417.839c10.091,0,19.375,0,29.368,0
	c0-2.193,0-4.129,0-6.065c0.002-18.5-0.088-37,0.044-55.5c0.069-9.682,8.099-15.495,17.445-12.941
	c5.832,1.594,9.129,6.296,9.133,13.247c0.02,33.833,0.009,67.667,0.01,101.5c0,16.666,0.018,33.332-0.008,49.999
	c-0.014,8.966-4.805,13.974-13.257,13.962c-8.395-0.013-13.318-5.068-13.346-13.98c-0.061-19.5-0.021-39-0.021-58.5
	c0-1.969,0-3.936,0-6.207c-9.919,0-19.331,0-29.368,0c0,1.855,0,3.627,0,5.399c-0.001,19.667,0.011,39.333-0.005,58.999
	c-0.008,8.98-4.783,14.197-13.009,14.288c-8.629,0.095-13.595-5.001-13.601-14.229c-0.031-50.166-0.029-100.332-0.001-150.499
	c0.005-9.299,4.881-14.405,13.473-14.352c8.45,0.052,13.135,5.261,13.141,14.653c0.01,18.167,0.002,36.333,0.002,54.5
	C441.875,413.912,441.876,415.711,441.876,417.839z"/>
<path fill-rule="evenodd" clip-rule="evenodd" fill="#EEEEEE" d="M276.299,511.395c-4.388,7.391-10.362,11.189-18.249,11.617
	c-17.865,0.969-28.171-8.822-28.23-27.027c-0.098-30.485-0.04-60.972-0.02-91.458c0.006-8.949,4.456-13.59,12.876-13.566
	c8.295,0.024,12.715,4.715,12.73,13.782c0.044,26.155,0.008,52.31,0.031,78.465c0.002,2.493,0.164,4.989,0.314,7.479
	c0.241,3.984,1.8,7.13,5.91,8.313c4.686,1.349,9.083,0.44,12.394-3.073c1.119-1.188,1.138-3.699,1.143-5.607
	c0.067-28.652,0.016-57.307,0.068-85.961c0.016-8.668,4.527-13.343,12.606-13.398c8.292-0.056,12.978,4.521,12.987,12.946
	c0.038,33.651,0.016,67.303,0.016,100.955c0,1.666,0.018,3.332-0.004,4.998c-0.088,6.835-3.201,11.065-8.854,12.058
	c-7.217,1.266-12.243-1.388-14.833-7.844C276.94,513.46,276.768,512.818,276.299,511.395z"/>
<path fill-rule="evenodd" clip-rule="evenodd" fill="#EEEEEE" d="M632.239,403.189c4.699-10.642,8.292-13.049,17.479-12.205
	c7.05,0.648,10.456,5.3,10.154,13.871c-0.264,7.509-4.334,12.243-10.903,12.302c-2.628,0.023-5.261-0.611-7.893-0.929
	c-5.621-0.679-7.195,0.687-7.196,6.294c-0.007,28.794,0.022,57.589-0.019,86.384c-0.014,9.676-7.394,15.262-16.75,12.822
	c-5.802-1.514-8.833-5.975-8.851-13.363c-0.043-18.309-0.016-36.617-0.016-54.926c0-16.312-0.052-32.623,0.023-48.934
	c0.044-9.667,6.529-14.619,15.912-12.3C629.563,393.535,631.227,397.789,632.239,403.189z"/>
<path fill-rule="evenodd" clip-rule="evenodd" fill="#6DB6D1" d="M774.123,490.838c9.216-0.064,15.452,5.991,15.548,15.098
	c0.1,9.395-6.208,15.916-15.377,15.901c-8.972-0.015-15.245-6.365-15.296-15.485C758.946,497.135,765.022,490.902,774.123,490.838z"
	/>
</svg>
