<?xml version="1.0" encoding="utf-8"?>
<!-- Generator: Adobe Illustrator 16.0.0, SVG Export Plug-In . SVG Version: 6.00 Build 0)  -->
<!DOCTYPE svg PUBLIC "-//W3C//DTD SVG 1.1//EN" "http://www.w3.org/Graphics/SVG/1.1/DTD/svg11.dtd">
<svg version="1.1" id="Layer_1" xmlns="http://www.w3.org/2000/svg" xmlns:xlink="http://www.w3.org/1999/xlink" x="0px" y="0px"
	 width="872.512px" height="873px" viewBox="0 0 872.512 873" enable-background="new 0 0 872.512 873" xml:space="preserve">
<g>
	<path fill-rule="evenodd" clip-rule="evenodd" d="M766.259,151.543C702.202,76.757,620.836,29.833,524.411,9.479
		c-26.766-5.649-53.899-8.689-81.315-8.722c-1.421-0.001-2.841-0.494-4.261-0.758c-1.332,0-2.667,0-4,0
		c-4.268,0.318-8.531,0.794-12.804,0.931C226.5,7.179,57.973,142.822,13.135,333.972c-34.382,146.579-1.092,278.61,97.832,392.409
		c63.789,73.379,144.94,118.721,240.257,138.002c19.347,3.913,39.232,5.164,58.864,7.671c1.596,0.204,3.164,0.626,4.746,0.946
		c14.333,0,28.668,0,43,0c6.075-0.646,12.143-1.387,18.228-1.922c52.966-4.656,103.444-18.482,151.09-42.014
		c89.499-44.202,156.687-111.055,201.159-200.452c22.445-45.119,36.486-92.859,41.584-143.028
		C882.696,359.6,848.596,247.672,766.259,151.543z M212.873,482.466c-0.069,21.263-15.352,37.011-36.708,37.521
		c-10.993,0.263-21.998,0.138-32.996,0.02c-7.306-0.079-12.485-4.968-12.498-12.154c-0.087-50.163-0.076-100.326-0.014-150.489
		c0.007-6.482,4.233-12.029,10.303-12.142c13.297-0.245,26.732-0.674,39.884,0.886c16.518,1.959,26.505,14.163,27.104,30.832
		c0.334,9.32,0.247,18.667,0.012,27.993c-0.221,8.764-3.903,15.364-13.142,24.756c13.168,6.622,18.102,17.538,18.062,31.278
		C212.859,468.133,212.895,475.299,212.873,482.466z M300.872,509.858c-0.088,6.835-3.201,11.065-8.854,12.058
		c-7.217,1.266-12.243-1.388-14.833-7.844c-0.245-0.612-0.417-1.254-0.885-2.678c-4.388,7.391-10.363,11.189-18.249,11.617
		c-17.866,0.969-28.171-8.822-28.23-27.027c-0.098-30.485-0.039-60.972-0.019-91.458c0.005-8.949,4.456-13.59,12.876-13.566
		c8.294,0.024,12.715,4.715,12.73,13.782c0.044,26.155,0.008,52.31,0.031,78.465c0.003,2.493,0.164,4.989,0.315,7.479
		c0.24,3.984,1.799,7.13,5.909,8.313c4.686,1.349,9.083,0.44,12.394-3.073c1.119-1.188,1.137-3.699,1.143-5.607
		c0.067-28.652,0.016-57.307,0.067-85.961c0.016-8.668,4.528-13.343,12.606-13.398c8.292-0.056,12.978,4.521,12.988,12.946
		c0.038,33.651,0.016,67.303,0.016,100.955C300.876,506.526,300.894,508.192,300.872,509.858z M392.896,429.661
		c-0.175,7.325,0.553,14.752-0.413,21.96c-2.905,21.682-20.298,33.545-43.225,30.1c-1.138-0.171-2.271-0.387-3.625-0.618
		c-3.612,7.845-1.332,11.657,6.704,11.833c6.992,0.153,14.066-0.496,20.968,0.338c25.116,3.031,36.764,32.363,20.704,52.985
		c-4.184,5.372-10.551,9.877-16.857,12.598c-14.59,6.294-29.936,5.692-44.978,1.082c-9.992-3.062-16.669-9.714-18.167-20.431
		c-1.537-10.99,2.029-20.008,11.364-26.434c0.808-0.557,1.615-1.113,3.144-2.168c-7.184-4.676-9.842-11.281-9.225-19.312
		c0.606-7.894,4.776-13.637,11.451-18.464c-10.474-10.262-11.655-23.186-10.954-36.649c0.346-6.636-0.026-13.386,1.081-19.888
		c2.703-15.871,14.961-25.747,30.993-26.727c11.597-0.708,23.133-2.363,34.696-3.6c0.992-0.106,1.979-0.288,2.972-0.37
		c8.469-0.698,12.062,1.65,13.094,8.536c1.213,8.102-2.04,12.659-10.202,14.211c-1.587,0.302-3.206,0.431-5.353,0.71
		C392.527,415.375,393.069,422.402,392.896,429.661z M497.869,508.079c-0.015,8.966-4.805,13.974-13.257,13.962
		c-8.395-0.013-13.523-5.068-13.551-13.98c-0.061-19.5-0.227-39-0.227-58.5c0-1.969,0-3.561,0-6.561c-10,0-19,0-29,0
		c0,2,0,3.98,0,5.753c0,19.667,0.031,39.333,0.016,58.999c-0.008,8.98-4.772,14.197-12.999,14.288
		c-8.629,0.095-13.59-5.001-13.596-14.229c-0.03-50.166-0.027-100.332,0-150.498c0.006-9.299,4.883-14.405,13.475-14.353
		c8.451,0.052,13.135,5.261,13.141,14.653c0.01,18.167,0.003,36.413,0.003,54.58c0,1.799,0.002,3.807,0.002,5.807
		c10.09,0,18.957,0,28.957,0c0-2,0-4.29,0-6.226c0-18.5,0.117-37,0.248-55.5c0.07-9.682,8.202-15.495,17.548-12.941
		c5.832,1.594,9.181,6.296,9.185,13.247c0.02,33.833,0.035,67.667,0.037,101.5C497.852,474.746,497.894,491.412,497.869,508.079z
		 M589.704,453.268c-0.063,7.23-3.611,10.734-10.759,10.762c-11.135,0.044-22.27,0.012-33.963,0.012
		c0,9.851-0.241,18.999,0.083,28.127c0.225,6.355,4.062,9.778,9.777,9.708c5.842-0.071,9.209-3.393,9.839-9.745
		c0.099-0.992,0.078-1.996,0.112-2.994c0.277-7.939,4.38-11.836,12.339-11.719c7.514,0.109,11.692,4.23,11.919,11.755
		c0.617,20.399-12.283,33.81-32.756,33.812c-4.463,0-9.037-0.24-13.369-1.213c-13.767-3.094-22.81-13.229-23.285-28.744
		c-0.74-24.121-0.929-48.326,0.256-72.417c1.029-20.934,15.293-31.446,38.256-30.644c18.191,0.635,31.037,14.075,31.525,33.316
		C589.931,433.271,589.791,443.272,589.704,453.268z M659.872,404.855c-0.264,7.508-4.334,12.242-10.904,12.302
		c-2.627,0.023-5.26-0.611-7.892-0.929c-5.622-0.68-7.195,0.687-7.196,6.294c-0.008,28.794,0.021,57.589-0.019,86.384
		c-0.014,9.676-7.394,15.262-16.75,12.822c-5.802-1.514-8.833-5.975-8.851-13.363c-0.043-18.309-0.016-36.617-0.016-54.926
		c0-16.312-0.052-32.623,0.023-48.934c0.044-9.667,6.529-14.619,15.912-12.3c5.383,1.33,7.047,5.584,8.059,10.984
		c4.699-10.642,8.292-13.05,17.479-12.205C656.767,391.632,660.173,396.285,659.872,404.855z M739.424,422.865
		c0,28.648,0.043,57.298-0.028,85.946c-0.023,9.55-6.015,14.651-15.132,13.104c-5.549-0.94-8.348-4.863-10.091-10.397
		c-5.233,6.949-11.481,11.271-19.917,11.511c-15.576,0.443-26.719-9.536-26.904-25.1c-0.334-27.979-0.23-55.965-0.02-83.945
		c0.068-9.174,3.447-17.164,12.264-21.312c9.506-4.472,19.064-3.993,28.09,1.667c1.945,1.22,3.585,2.929,6.107,5.031
		c0-15.022-0.051-29.315,0.017-43.607c0.05-10.601,10.562-16.55,19.8-11.244c4.576,2.628,5.844,6.901,5.832,11.888
		C739.395,378.56,739.424,400.712,739.424,422.865z M774.293,521.837c-8.973-0.015-15.246-6.365-15.296-15.485
		c-0.052-9.217,6.024-15.449,15.124-15.514c9.217-0.064,15.453,5.991,15.549,15.098C789.77,515.33,783.462,521.852,774.293,521.837z
		"/>
	<path fill-rule="evenodd" clip-rule="evenodd" d="M174.387,442.742c-5.668-0.684-11.553-0.142-17.553-0.142
		c0,17.849,0,35.629,0,54.176c4,0,7.205,0.083,10.504-0.028c2.323-0.078,4.719-0.287,7.011-0.668
		c6.52-1.081,11.013-4.879,11.384-11.42c0.573-10.101,0.509-20.281-0.065-30.383C185.299,447.785,180.938,443.531,174.387,442.742z"
		/>
	<path fill-rule="evenodd" clip-rule="evenodd" d="M180.76,409.041c0.579-10.727,0.383-21.525-0.098-32.267
		c-0.184-4.095-3.616-6.987-7.725-7.597c-5.173-0.768-10.103-0.825-16.103-1.208c0,17.29,0,33.699,0,50.988
		c5-0.244,9.613-0.221,14.027-0.741C176.232,417.583,180.478,414.272,180.76,409.041z"/>
	<path fill-rule="evenodd" clip-rule="evenodd" d="M356.007,411.012c-6.435,0.116-10.637,4.131-11.072,11.08
		c-0.292,4.646-0.056,9.326-0.052,13.992c0.004,4.665-0.248,9.347,0.064,13.991c0.462,6.875,4.778,10.896,11.212,10.964
		c6.686,0.071,11.293-4,11.547-11.112c0.333-9.318,0.355-18.668-0.021-27.983C367.399,414.807,362.797,410.89,356.007,411.012z"/>
	<path fill-rule="evenodd" clip-rule="evenodd" d="M341.089,520.085c-5.26,9.882-1.691,19.616,8.05,21.759
		c2.259,0.497,4.605,0.606,6.911,0.895c0.115,0.288,0.23,0.576,0.346,0.865c4.574-1.725,9.492-2.871,13.635-5.325
		c5.011-2.97,6.645-9.298,5.137-14.978c-1.496-5.635-5.586-8.083-10.936-8.596c-4.45-0.426-8.999,0.019-13.415-0.577
		C345.684,513.436,343.161,516.193,341.089,520.085z"/>
	<path fill-rule="evenodd" clip-rule="evenodd" d="M708.577,413.223c-8.742-3.581-15.629,1.069-15.67,10.812
		c-0.092,21.475-0.05,42.951,0.008,64.426c0.006,1.965,0.279,4.002,0.846,5.879c1.497,4.951,5.742,7.227,11.434,6.381
		c6.181-0.918,8.592-3.506,8.597-9.266c0.007-11.652,0.003-23.307,0.003-34.959c0-11.82-0.234-23.647,0.12-35.456
		C714.045,416.664,712.063,414.65,708.577,413.223z"/>
	<path fill-rule="evenodd" clip-rule="evenodd" d="M554.916,411.386c-5.117-0.102-9.245,3.085-9.596,8.398
		c-0.521,7.868-0.136,15.216-0.136,24.216c6.327,0,12.404,0,18.869,0c0-9,0.387-16.417-0.133-24.276
		C563.567,414.381,559.964,411.486,554.916,411.386z"/>
</g>
</svg>
